<svg xmlns="https://www.w3.org/2000/svg" xmlns:xlink="http://www.w3.org/1999/xlink" style="display:none">
    <defs>
        <linearGradient id="a" x1="4.458" x2="26.52" y1="4" y2="29.314" gradientUnits="userSpaceOnUse">
            <stop stop-color="currentColor" />
            <stop offset="1" stop-color="currentColor" stop-opacity="0" />
        </linearGradient>
    </defs>

    <!-- Enfoque Pedagogico -->
    <symbol id="approach" xmlns="http://www.w3.org/2000/svg" fill="none" viewBox="0 0 75 75">
        <g fill="currentColor">
            <path
                d="M37.91 44.65c-.25-.03-.53-.03-.81 0-5.75-.19-10.34-4.91-10.34-10.72 0-5.81 4.78-10.75 10.75-10.75s10.75 4.81 10.75 10.75-4.56 10.53-10.34 10.72h-.01ZM27.77 51.12c-4.72 3.16-4.72 8.34 0 11.47 5.38 3.59 14.19 3.59 19.56 0 4.72-3.16 4.72-8.34 0-11.47-5.34-3.59-14.16-3.59-19.56 0ZM17.87 27.85c-.21-.03-.45-.03-.69 0-4.86-.16-8.74-4.14-8.74-9.06 0-4.92 4.04-9.08 9.08-9.08s9.08 4.07 9.08 9.08-3.85 8.9-8.74 9.06h.01ZM25.84 42.98s-.01.02-.02.02c-4.54 3.04-11.99 3.04-16.53 0-3.99-2.64-3.99-7.02 0-9.68 3.68-2.45 9.23-2.93 13.61-1.42-.09.67-.14 1.34-.14 2.03 0 3.41 1.14 6.56 3.08 9.05ZM57.77 27.85c-.21-.03-.45-.03-.69 0-4.86-.16-8.74-4.14-8.74-9.06 0-4.92 4.04-9.08 9.08-9.08s9.08 4.07 9.08 9.08-3.85 8.9-8.74 9.06h.01ZM65.71 43c-4.54 3.04-11.98 3.04-16.52 0-.01 0-.01-.01-.02-.02 1.94-2.49 3.08-5.64 3.08-9.05 0-.69-.05-1.36-.14-2.03 4.4-1.51 9.96-1.03 13.6 1.42 3.99 2.64 3.99 7.02 0 9.68Z" />
        </g>
    </symbol>
    <!-- Adaptacion Curricular -->
    <symbol id="adaptation" xmlns="http://www.w3.org/2000/svg" fill="none" viewBox="0 0 75 75">
        <path fill="currentColor"
            d="M35.06 15.97C29.5 12.5 19.56 9.18 13 8.65c-3.72-.31-6.75 2.5-6.75 6.22v37.75c0 3 2.44 5.81 5.44 6.19l.91.12c6.65.89 16.85 4.22 22.9 7.44V16.23l-.44-.26ZM17.19 21.5c2.81 1.07 4.22 1.6 7.03 2.66 1.28.49 2.34 1.98 2.34 3.29S25.5 29.47 24.22 29c-2.81-1.03-4.22-1.55-7.03-2.58-1.28-.47-2.34-1.98-2.34-3.33s1.06-2.07 2.34-1.59Zm9.37 17.98c-3.75-1.3-5.62-1.94-9.37-3.23-1.28-.45-2.34-1.93-2.34-3.28 0-1.35 1.06-2.09 2.34-1.64 3.75 1.34 5.62 2 9.37 3.34 1.29.45 2.35 1.92 2.35 3.22 0 1.3-1.06 2.03-2.35 1.59ZM68.75 14.91v37.71c0 3-2.44 5.82-5.44 6.19l-1.03.13c-6.61.87-16.71 4.17-22.78 7.4V16.22l.19-.13c5.56-3.5 15.53-6.84 22.09-7.4h.19c3.72-.32 6.78 2.47 6.78 6.22Z" />
    </symbol>
    <!-- Curriculo Enriquecido -->
    <symbol id="enriched" xmlns="http://www.w3.org/2000/svg" fill="none" viewBox="0 0 75 75">
        <path fill="currentColor"
            d="M57.46 44.92v10.61c0 3.97-3.09 8.22-6.81 9.47l-9.97 3.31c-1.75.6-4.59.6-6.31 0L24.4 65c-3.75-1.25-6.81-5.5-6.81-9.47l.02-10.64 11.63 7.58c2.27 1.5 5.24 2.32 8.35 2.32 3.11 0 6.08-.82 8.35-2.32l11.52-7.55Z" />
        <path fill="currentColor"
            d="M62.47 20.19 43.75 7.91c-3.38-2.22-8.94-2.22-12.31 0L12.63 20.19c-6.03 3.91-6.03 12.75 0 16.69l5 3.25 13.81 9c3.38 2.22 8.94 2.22 12.31 0l18-11.81v9.56c0 1.28 1.06 2.34 2.34 2.34 1.28 0 2.34-1.06 2.34-2.34V31.5c1.25-4.03-.03-8.72-3.97-11.31h.01Z" />
    </symbol>
    <!-- Organizacion Centrada -->
    <symbol id="organization" xmlns="http://www.w3.org/2000/svg" fill="none" viewBox="0 0 75 75">
        <path fill="currentColor"
            d="m53.73 10.02-5.22-1.21c-10.44-2.47-16.66-.44-20.32 7.12-.93 1.91-1.68 4.22-2.31 6.88L22.82 35.9c-3.06 13.06.97 19.5 14 22.59l5.25 1.25c1.81.44 3.5.72 5.06.85 9.75.93 14.94-3.63 17.56-14.91l3.07-13.06c3.06-13.06-.94-19.53-14.03-22.6Zm-5.91 31.63c-.25 1.06-1.19 1.75-2.25 1.75-.19 0-.38-.03-.59-.06l-9.1-2.32c-1.25-.31-2-1.59-1.69-2.84.32-1.25 1.6-2 2.85-1.69l9.09 2.32c1.25.31 2 1.59 1.69 2.84Zm9.16-10.56c-.25 1.03-1.22 1.75-2.25 1.75-.19 0-.38-.03-.6-.07l-15.15-3.84c-1.25-.31-2-1.59-1.69-2.84.31-1.25 1.59-2 2.84-1.69l15.16 3.84c1.25.32 2 1.6 1.69 2.85Z" />
        <path fill="currentColor"
            d="M40.91 63.58c-.37.13-.74.26-1.12.38l-4.94 1.63c-12.41 4-18.94.65-22.97-11.75l-4-12.35c-4-12.4-.69-18.97 11.72-22.97l3.71-1.22c-.49 1.37-.92 2.9-1.33 4.6l-3.05 13.09c-3.54 15.1 1.85 23.81 16.96 27.39l5.02 1.2Z" />
    </symbol>
    <!-- Trabajo Interdisciplinario -->
    <symbol id="interdisciplinary" xmlns="http://www.w3.org/2000/svg" fill="none" viewBox="0 0 75 75">
        <path fill="currentColor"
            d="M63.72 23.01c-2.45-2.71-6.55-4.07-12.49-4.07h-.69v-.12c0-4.85 0-10.85-10.85-10.85H35.3c-10.85 0-10.85 6.03-10.85 10.85v.14h-.69c-5.97 0-10.04 1.36-12.49 4.07-2.86 3.17-2.77 7.44-2.48 10.36l.03.2.29 3.03s.09.09.14.12c.95.63 1.93 1.27 2.97 1.85.4.26.84.49 1.27.72 4.93 2.71 10.36 4.53 15.87 5.42.26 2.71 1.44 5.89 7.76 5.89s7.56-3.14 7.76-5.94c5.89-.95 11.57-3 16.71-6 .17-.09.29-.17.43-.26 1.33-.75 2.57-1.56 3.78-2.45.06-.03.12-.09.14-.14l.12-1.04.14-1.36c.03-.17.03-.32.06-.52.23-2.91.17-6.9-2.54-9.9ZM40.64 42.78c0 3.06 0 3.52-3.55 3.52s-3.55-.55-3.55-3.49v-3.64h7.1v3.61ZM28.58 18.95v-.12c0-4.9 0-6.72 6.72-6.72h4.39c6.72 0 6.72 1.85 6.72 6.72v.14H28.58v-.03.01Z" />
        <path fill="currentColor"
            d="m65.51 41-1.33 14.33c-.61 5.77-2.97 11.69-15.67 11.69H26.53c-12.7 0-15.06-5.92-15.67-11.66L9.58 41.69c.19.12.39.23.59.34.49.31.98.57 1.39.79 4.5 2.48 9.37 4.28 14.49 5.37 1.52 4.18 5.35 6.44 11.07 6.44 7.12 0 10-3.32 11.11-6.51a52.44 52.44 0 0 0 15.29-5.93c.19-.1.35-.2.54-.32.49-.28.97-.57 1.45-.87Z" />
    </symbol>

    <!-- Flecha derecha Boton -->
    <symbol id="btnarrow" xmlns="http://www.w3.org/2000/svg" fill="none" viewBox="0 0 75 75">
        <path fill="currentColor"
            d="M65.72 35.84 46.75 16.87c-.91-.91-2.41-.91-3.31 0-.91.91-.91 2.41 0 3.31l14.97 14.97H10.94c-1.28 0-2.34 1.06-2.34 2.34 0 1.28 1.06 2.34 2.34 2.34h47.47L43.44 54.8c-.91.91-.91 2.41 0 3.31.47.47 1.06.69 1.66.69.6 0 1.19-.22 1.66-.69l18.97-18.97c.91-.91.91-2.41 0-3.31l-.01.01Z" />
    </symbol>
    <!-- Flecha abajo Menu -->
    <symbol id="btnmenu" xmlns="http://www.w3.org/2000/svg" fill="none" viewBox="0 0 12 11">
        <path fill="currentColor"
            d="M5.106 10.211.724 1.447A1 1 0 0 1 1.618 0h8.764a1 1 0 0 1 .894 1.447l-4.382 8.764a1 1 0 0 1-1.788 0Z" />
    </symbol>
    <!-- Flecha abajo Menu2 -->
    <symbol id="btnmenu2" xmlns="http://www.w3.org/2000/svg" fill="none" viewBox="0 0 11 7">
        <path stroke="currentColor" stroke-linecap="round" stroke-linejoin="round" stroke-width="2"
            d="m9.5 5.256-4-4-4 4" />
    </symbol>

    <!-- Nuestra Mision -->
    <symbol id="mission" xmlns="http://www.w3.org/2000/svg" fill="none" viewBox="0 0 50 50">
        <path fill="currentColor"
            d="M45.833 23.437h-4.25c-.75-7.937-7.083-14.291-15.02-15.02v-4.25c0-.855-.709-1.563-1.563-1.563s-1.563.708-1.563 1.563v4.25c-7.937.75-14.291 7.083-15.02 15.02h-4.25c-.855 0-1.563.709-1.563 1.563s.708 1.562 1.563 1.562h4.25c.75 7.938 7.083 14.292 15.02 15.021v4.25c0 .854.709 1.563 1.563 1.563s1.563-.709 1.563-1.563v-4.25c7.937-.75 14.291-7.083 15.02-15.02h4.25c.855 0 1.563-.709 1.563-1.563s-.709-1.563-1.563-1.563ZM25 31.5a6.508 6.508 0 0 1-6.5-6.5c0-3.584 2.917-6.5 6.5-6.5s6.5 2.916 6.5 6.5c0 3.583-2.917 6.5-6.5 6.5Z" />
    </symbol>
    <!-- Nuestra Vision -->
    <symbol id="vision" xmlns="http://www.w3.org/2000/svg" fill="none" viewBox="0 0 50 50">
        <path fill="currentColor"
            d="M23.438 38.02H18.75a4.179 4.179 0 0 0-4.167 4.167v.521H12.5c-.854 0-1.563.709-1.563 1.563s.709 1.562 1.563 1.562h25c.854 0 1.563-.708 1.563-1.562 0-.854-.709-1.563-1.563-1.563h-2.083v-.52a4.179 4.179 0 0 0-4.167-4.167h-4.688V33.25c-.52.063-1.041.083-1.562.083-.52 0-1.042-.02-1.563-.083v4.77Z" />
        <path fill="currentColor"
            d="M38.5 24.25c1.375-.521 2.583-1.375 3.542-2.334 1.937-2.145 3.208-4.708 3.208-7.708s-2.354-5.354-5.354-5.354h-1.167c-1.354-2.77-4.187-4.687-7.479-4.687h-12.5c-3.292 0-6.125 1.916-7.48 4.687h-1.166c-3 0-5.354 2.354-5.354 5.354s1.27 5.563 3.208 7.708c.959.959 2.167 1.813 3.542 2.334 2.167 5.333 7.375 9.083 13.5 9.083s11.333-3.75 13.5-9.083Zm-7.583-6.646-1.292 1.583c-.208.23-.354.688-.333 1l.125 2.042c.083 1.25-.813 1.896-1.98 1.438l-1.895-.75c-.292-.105-.792-.105-1.084 0l-1.895.75c-1.167.458-2.063-.188-1.98-1.438l.125-2.042c.021-.312-.125-.77-.333-1l-1.292-1.583c-.812-.958-.458-2.02.75-2.333l1.98-.5c.312-.084.687-.375.854-.646l1.104-1.709c.687-1.062 1.77-1.062 2.458 0l1.104 1.709c.167.27.542.562.855.646l1.979.5c1.208.312 1.562 1.375.75 2.333Z" />
    </symbol>
    <!-- Sellos Educativos -->
    <symbol id="stamps" xmlns="http://www.w3.org/2000/svg" fill="none" viewBox="0 0 50 50">
        <path fill="currentColor"
            d="m44.271 38.48-3.437.812c-.771.187-1.375.77-1.542 1.541l-.73 3.063c-.395 1.666-2.52 2.187-3.624.875l-6.23-7.167c-.5-.583-.229-1.5.521-1.687 3.688-.896 7-2.959 9.438-5.896.396-.48 1.104-.542 1.542-.104l4.625 4.625c1.583 1.583 1.02 3.562-.563 3.937ZM5.625 38.48l3.437.812c.771.187 1.375.77 1.542 1.541l.729 3.063c.396 1.666 2.52 2.187 3.625.875l6.23-7.167c.5-.583.228-1.5-.522-1.687-3.687-.896-7-2.959-9.437-5.896-.396-.48-1.104-.542-1.542-.104l-4.625 4.625c-1.583 1.583-1.02 3.562.563 3.937ZM25 4.167c-8.062 0-14.583 6.52-14.583 14.583 0 3.021.896 5.792 2.438 8.105 2.25 3.333 5.812 5.687 9.958 6.291.708.125 1.437.188 2.187.188.75 0 1.48-.063 2.188-.188 4.146-.604 7.708-2.958 9.958-6.291a14.517 14.517 0 0 0 2.438-8.105c0-8.062-6.521-14.583-14.584-14.583Zm6.375 14.125-1.729 1.73c-.291.29-.458.853-.354 1.27l.5 2.146c.396 1.687-.5 2.354-2 1.458l-2.083-1.229c-.375-.23-1-.23-1.375 0l-2.084 1.23c-1.5.874-2.395.228-2-1.46l.5-2.145c.084-.396-.062-.98-.354-1.27l-1.77-1.73c-1.021-1.02-.688-2.042.729-2.27l2.229-.376c.375-.062.812-.396.979-.729l1.229-2.458c.667-1.334 1.75-1.334 2.417 0l1.229 2.458c.167.333.604.667 1 .73l2.229.374c1.396.23 1.73 1.25.708 2.271Z" />
    </symbol>
    <!-- Valores -->
    <symbol id="values" xmlns="http://www.w3.org/2000/svg" fill="none" viewBox="0 0 50 50">
        <path fill="currentColor"
            d="M39.167 20.646a7.22 7.22 0 0 0-5.771 2.896 7.22 7.22 0 0 0-5.771-2.896c-3.98 0-7.208 3.25-7.208 7.25 0 1.542.25 2.98.666 4.292 2.042 6.479 8.375 10.375 11.5 11.437.438.146 1.167.146 1.605 0 3.124-1.062 9.458-4.937 11.5-11.437.437-1.334.666-2.75.666-4.292.021-4-3.208-7.25-7.187-7.25Z" />
        <path fill="currentColor"
            d="M43.23 17.375c0 .48-.48.792-.938.667-2.813-.73-5.896-.125-8.23 1.541a1.281 1.281 0 0 1-1.52 0 9.687 9.687 0 0 0-5.75-1.874c-5.375 0-9.75 4.395-9.75 9.812 0 5.875 2.812 10.27 5.645 13.208.146.146.021.396-.166.313-5.688-1.938-18.354-9.98-18.354-23.667C4.167 11.334 9.02 6.46 15.02 6.46a10.81 10.81 0 0 1 8.687 4.354c2-2.646 5.146-4.355 8.688-4.355 5.979 0 10.833 4.876 10.833 10.917Z" />
    </symbol>

    <!-- Pin de Ubicacion -->
    <symbol id="address" xmlns="http://www.w3.org/2000/svg" fill="none" viewBox="0 0 32 32">
        <path fill="currentColor"
            d="M27.493 11.267C26.093 5.107 20.72 2.334 16 2.334h-.013c-4.707 0-10.094 2.76-11.494 8.92-1.56 6.88 2.654 12.706 6.467 16.373a7.247 7.247 0 0 0 5.04 2.04c1.813 0 3.627-.68 5.027-2.04 3.813-3.667 8.026-9.48 6.466-16.36ZM16 17.947a4.2 4.2 0 1 1-.001-8.4 4.2 4.2 0 0 1 .001 8.4Z" />
    </symbol>
    <!-- Horario de atencion -->
    <symbol id="time" xmlns="http://www.w3.org/2000/svg" fill="none" viewBox="0 0 32 32">
        <path fill="currentColor"
            d="M16 2.667C8.654 2.667 2.667 8.654 2.667 16c0 7.347 5.987 13.334 13.333 13.334 7.347 0 13.334-5.987 13.334-13.334 0-7.346-5.987-13.333-13.334-13.333Zm5.8 18.093a.995.995 0 0 1-.866.494.893.893 0 0 1-.507-.147l-4.133-2.467c-1.027-.613-1.787-1.96-1.787-3.146v-5.467c0-.547.453-1 1-1 .547 0 1 .453 1 1v5.467c0 .48.4 1.186.813 1.426l4.134 2.467c.48.28.64.893.346 1.373Z" />
    </symbol>
    <!-- Correo electronico -->
    <symbol id="email" xmlns="http://www.w3.org/2000/svg" fill="none" viewBox="0 0 32 32">
        <path fill="currentColor"
            d="M22.667 4.667H9.333c-4 0-6.666 2-6.666 6.666v9.333c0 4.667 2.666 6.667 6.666 6.667h13.334c4 0 6.666-2 6.666-6.666v-9.334c0-4.667-2.666-6.667-6.666-6.667Zm.626 8.12L19.12 16.12c-.88.706-2 1.053-3.12 1.053s-2.253-.346-3.12-1.053l-4.173-3.334a1.026 1.026 0 0 1-.16-1.413.997.997 0 0 1 1.4-.16l4.173 3.334c1.013.813 2.733.813 3.747 0l4.173-3.334a.984.984 0 0 1 1.4.16c.347.427.28 1.067-.147 1.414Z" />
    </symbol>
    <!-- Numero de telefono -->
    <symbol id="tel" xmlns="http://www.w3.org/2000/svg" fill="none" viewBox="0 0 32 32">
        <path fill="currentColor"
            d="M23.493 14.334a1.027 1.027 0 0 1-1.026-1.027c0-.494-.494-1.52-1.32-2.414-.814-.866-1.707-1.373-2.454-1.373a1.027 1.027 0 0 1-1.026-1.027c0-.56.466-1.026 1.026-1.026 1.334 0 2.734.72 3.96 2.013 1.147 1.213 1.88 2.72 1.88 3.813 0 .574-.466 1.04-1.04 1.04ZM28.307 14.333a1.027 1.027 0 0 1-1.027-1.027c0-4.733-3.853-8.573-8.573-8.573a1.027 1.027 0 0 1-1.027-1.026c0-.56.453-1.04 1.013-1.04 5.867 0 10.64 4.773 10.64 10.64 0 .56-.466 1.026-1.026 1.026ZM14.733 19.933 12.267 22.4a1.34 1.34 0 0 1-1.88.013c-.147-.146-.294-.28-.44-.427a37.887 37.887 0 0 1-3.72-4.36c-1.094-1.52-1.974-3.04-2.614-4.546-.626-1.52-.946-2.973-.946-4.36 0-.907.16-1.774.48-2.574.32-.813.826-1.56 1.533-2.226.853-.84 1.787-1.253 2.773-1.253.374 0 .747.08 1.08.24.347.16.654.4.894.746l3.093 4.36c.24.334.413.64.533.934.12.28.187.56.187.813 0 .32-.093.64-.28.947a4.533 4.533 0 0 1-.747.946L11.2 12.706a.714.714 0 0 0-.213.534c0 .107.013.2.04.306.04.107.08.187.106.267.24.44.654 1.013 1.24 1.707.6.693 1.24 1.4 1.934 2.107.133.133.28.266.413.4.533.52.547 1.373.013 1.906ZM29.293 24.44a3.384 3.384 0 0 1-.333 1.453 5.5 5.5 0 0 1-.907 1.36c-.653.72-1.373 1.24-2.186 1.574-.014 0-.027.013-.04.013-.787.32-1.64.494-2.56.494-1.36 0-2.814-.32-4.347-.974-1.533-.653-3.067-1.533-4.587-2.64a33.39 33.39 0 0 1-1.533-1.186l4.36-4.36c.373.28.707.493.987.64.066.026.146.066.24.106a.92.92 0 0 0 .333.053c.227 0 .4-.08.547-.226l1.013-1c.333-.334.653-.587.96-.747.307-.186.613-.28.947-.28.253 0 .52.053.813.174.293.12.6.293.933.52l4.414 3.133c.346.24.586.52.733.853.133.334.213.667.213 1.04Z" />
    </symbol>

    <!-- Facebook -->
    <symbol id="facebook" xmlns="http://www.w3.org/2000/svg" fill="none" viewBox="0 0 48 48">
        <path fill="currentColor"
            d="M24 0c13.255 0 24 10.745 24 24S37.255 48 24 48 0 37.255 0 24 10.745 0 24 0Zm2.953 12c-4.33 0-5.854 2.183-5.854 5.854v2.7H18.4v4.5H21.1v13.057h5.403V25.055h3.604l.478-4.5h-4.082l.006-2.252c0-1.174.111-1.803 1.797-1.803h2.253V12h-3.605Z" />
    </symbol>
    <!-- Instagram -->
    <symbol id="instagram" xmlns="http://www.w3.org/2000/svg" fill="none" viewBox="0 0 48 48">
        <path fill="currentColor"
            d="M24 0c13.255 0 24 10.745 24 24S37.255 48 24 48 0 37.255 0 24 10.745 0 24 0Zm-.001 11.2c-3.474 0-3.91.015-5.275.077-1.363.063-2.294.279-3.108.595a6.268 6.268 0 0 0-2.267 1.476 6.284 6.284 0 0 0-1.477 2.267c-.317.814-.533 1.745-.595 3.107-.06 1.365-.077 1.802-.077 5.278 0 3.476.016 3.911.077 5.276.063 1.363.279 2.294.595 3.108a6.276 6.276 0 0 0 1.477 2.267 6.267 6.267 0 0 0 2.266 1.477c.815.316 1.745.532 3.108.595 1.365.062 1.801.077 5.277.077s3.911-.015 5.276-.077c1.363-.063 2.294-.279 3.109-.595a6.262 6.262 0 0 0 2.265-1.477 6.286 6.286 0 0 0 1.478-2.267c.315-.814.53-1.745.595-3.107.061-1.365.077-1.8.077-5.277 0-3.476-.016-3.912-.077-5.277-.064-1.363-.28-2.294-.595-3.108a6.285 6.285 0 0 0-1.478-2.267 6.255 6.255 0 0 0-2.266-1.476c-.816-.316-1.747-.532-3.11-.595-1.365-.062-1.8-.077-5.275-.077Z" />
        <path fill="currentColor"
            d="M22.852 13.506h1.149c3.418 0 3.823.013 5.173.075 1.247.057 1.925.265 2.376.44a3.96 3.96 0 0 1 1.471.957c.448.448.725.875.957 1.473.176.45.385 1.128.442 2.376.061 1.349.074 1.755.074 5.17 0 3.416-.013 3.822-.074 5.17-.057 1.248-.266 1.926-.442 2.377a3.959 3.959 0 0 1-.957 1.47 3.96 3.96 0 0 1-1.471.957c-.45.176-1.128.385-2.376.442-1.35.06-1.755.075-5.173.075s-3.823-.014-5.172-.075c-1.248-.058-1.925-.267-2.377-.442a3.965 3.965 0 0 1-1.472-.957 3.97 3.97 0 0 1-.958-1.472c-.175-.45-.384-1.128-.441-2.376-.061-1.349-.073-1.754-.073-5.172 0-3.418.012-3.822.073-5.171.057-1.248.266-1.925.441-2.376.232-.597.51-1.024.958-1.472a3.971 3.971 0 0 1 1.472-.958c.451-.176 1.129-.384 2.377-.441 1.18-.054 1.638-.07 4.023-.073v.003Zm1.149 3.92a6.572 6.572 0 1 0 0 13.145 6.573 6.573 0 0 0 0-13.145Zm6.833-1.795a1.536 1.536 0 1 0 0 3.073 1.536 1.536 0 0 0 0-3.073Z" />
        <path fill="currentColor" d="M24.001 19.733a4.267 4.267 0 1 1 0 8.534 4.267 4.267 0 0 1 0-8.534Z" />
    </symbol>

    <!-- Fecha Calendario -->
    <symbol id="calendar" xmlns="http://www.w3.org/2000/svg" fill="none" viewBox="0 0 50 50">
        <path fill="currentColor"
            d="M34.896 7.417v-3.25c0-.855-.709-1.563-1.563-1.563s-1.562.708-1.562 1.563v3.125H18.229V4.167c0-.855-.708-1.563-1.562-1.563-.855 0-1.563.708-1.563 1.563v3.25c-5.625.52-8.354 3.874-8.77 8.854-.042.604.458 1.104 1.041 1.104h35.25c.604 0 1.104-.521 1.042-1.104-.417-4.98-3.146-8.334-8.771-8.855ZM41.667 20.5H8.333a2.09 2.09 0 0 0-2.083 2.083v12.834c0 6.25 3.125 10.416 10.417 10.416h16.666c7.292 0 10.417-4.166 10.417-10.416V22.583a2.09 2.09 0 0 0-2.083-2.083Zm-22.48 17.438c-.104.083-.208.187-.312.25a1.58 1.58 0 0 1-.375.187c-.125.063-.25.104-.375.125-.146.02-.27.042-.417.042-.27 0-.541-.063-.791-.167a2.15 2.15 0 0 1-.688-.438 2.19 2.19 0 0 1-.604-1.479c0-.541.23-1.083.604-1.479.209-.187.417-.333.688-.437a1.99 1.99 0 0 1 1.208-.125c.125.02.25.062.375.125.125.041.25.104.375.187l.313.25c.375.396.604.938.604 1.48a2.19 2.19 0 0 1-.605 1.478Zm0-7.292a2.19 2.19 0 0 1-1.479.604 2.19 2.19 0 0 1-1.479-.604 2.19 2.19 0 0 1-.604-1.48c0-.541.23-1.083.604-1.479a2.08 2.08 0 0 1 2.271-.437c.27.104.5.25.688.438.375.395.604.937.604 1.479a2.19 2.19 0 0 1-.605 1.479Zm7.292 7.291a2.19 2.19 0 0 1-1.479.605 2.19 2.19 0 0 1-1.48-.605 2.19 2.19 0 0 1-.603-1.479c0-.541.229-1.083.604-1.479.77-.77 2.187-.77 2.958 0 .375.396.604.938.604 1.48a2.19 2.19 0 0 1-.604 1.478Zm0-7.291-.312.25c-.125.083-.25.146-.375.187-.125.063-.25.105-.375.125-.146.021-.271.042-.417.042a2.19 2.19 0 0 1-1.48-.604 2.19 2.19 0 0 1-.603-1.48c0-.541.229-1.083.604-1.479.187-.187.416-.333.687-.437a2.081 2.081 0 0 1 2.271.438c.375.395.604.937.604 1.479a2.19 2.19 0 0 1-.604 1.479Zm7.292 7.291a2.19 2.19 0 0 1-1.48.605 2.19 2.19 0 0 1-1.478-.605 2.19 2.19 0 0 1-.605-1.479c0-.541.23-1.083.605-1.479.77-.77 2.187-.77 2.958 0 .375.396.604.938.604 1.48a2.19 2.19 0 0 1-.604 1.478Zm0-7.291-.313.25c-.125.083-.25.146-.375.187-.125.063-.25.105-.375.125-.145.021-.291.042-.416.042a2.19 2.19 0 0 1-1.48-.604 2.19 2.19 0 0 1-.604-1.48c0-.541.23-1.083.605-1.479.208-.187.416-.333.687-.437a1.992 1.992 0 0 1 1.208-.125c.125.02.25.063.375.125.125.042.25.104.375.188l.313.25c.375.395.604.937.604 1.479a2.19 2.19 0 0 1-.604 1.479Z" />
    </symbol>
    <!-- Boton Calendario -->
    <symbol id="calendarbtn" xmlns="http://www.w3.org/2000/svg" fill="none" viewBox="0 0 50 50">
        <path fill="currentColor"
            d="M33.73 4.166c7.583 0 12.103 4.521 12.083 12.104v17.46c0 7.583-4.522 12.103-12.105 12.103H16.27c-7.583 0-12.103-4.52-12.103-12.125V16.27c0-7.583 4.52-12.104 12.103-12.104h17.46ZM23.48 16.541a1.573 1.573 0 0 0-2.21 0 1.573 1.573 0 0 0 0 2.209L27.52 25l-6.25 6.25a1.572 1.572 0 0 0 0 2.208c.313.313.71.459 1.105.459.396 0 .792-.147 1.105-.459l7.353-7.354a1.572 1.572 0 0 0 0-2.209l-7.353-7.354Z" />
    </symbol>

    <!-- Taller de musica -->
    <symbol id="music" xmlns="http://www.w3.org/2000/svg" fill="none" viewBox="0 0 200 200">
        <path fill="currentColor"
            d="M155.63 29.57a5.216 5.216 0 0 0-4.55-.97L66.13 49.84c-1.15.29-2.17.95-2.89 1.88-.73.93-1.13 2.08-1.13 3.26v73.07a23.89 23.89 0 0 0-34.33 31.14c2.51 4.7 6.52 8.42 11.4 10.58a23.848 23.848 0 0 0 15.49 1.32 23.94 23.94 0 0 0 13.03-8.49c3.27-4.2 5.05-9.38 5.04-14.71V85.67l74.33-18.58v39.72a23.89 23.89 0 0 0-34.33 31.14c2.51 4.7 6.52 8.42 11.4 10.57a23.848 23.848 0 0 0 15.49 1.32 23.94 23.94 0 0 0 13.03-8.49c3.27-4.2 5.05-9.38 5.04-14.71v-92.9a5.303 5.303 0 0 0-2.04-4.17h-.03Z" />
    </symbol>
    <!-- Taller de Arte -->
    <symbol id="art" xmlns="http://www.w3.org/2000/svg" fill="none" viewBox="0 0 200 200">
        <path fill="currentColor"
            d="m143.66 68.57.66-.16c-1.93-8.65 6.08-14.42 13.02-17.49 4.16-1.84 8.79-2.72 12.43-5.63 2.09-1.68 4.34-6.04 6.41-1.8 5.89 12.02 3.83 32.7-10.86 37.37L155 97.78c.55 13.73-8.2 24.44-20.56 29.32-6.11 6.64-21.23 27.9-30.09 29-3.63.45-6.27-1.87-6.67-5.41-.9-7.98 7.42-20.97 10.8-28.18-5.87-2.51-12.57.46-13.14 7.2-.73 8.33 1.7 11.68-2.23 20.4-12.75 28.24-44.11 17.56-59-2.54C9.39 114.22 20.21 66.35 56.7 46.88c30.19-16.11 68.17-6.52 86.97 21.7l-.01-.01ZM77.2 56.52c-9.94 1.68-9.87 17.24.27 18.58 14.84 1.97 14.29-21.06-.27-18.58Zm30.43 10.53c-8.99 8.53 4.24 22.37 13.18 13.65s-4.3-22.08-13.18-13.65Zm48.49 13.02c-2.66-.81-4.98-2.46-7.06-4.26h-.47c-15.81 22.04-32.06 44.41-42.05 69.84.23.25 2.22-1.49 2.52-1.75 14.09-12.75 30.2-36.02 40.47-52.25 1.66-2.61 5.45-8.09 6.46-10.62.12-.31.27-.59.16-.96h-.03ZM57.46 93.38c8.99-8.32-4.01-22.59-13.2-13.66s4.16 22.01 13.2 13.66Zm-1.97 35.09c9.13-8.42-3.75-22.42-12.99-13.79-9.24 8.64 3.9 22.16 12.99 13.79Z" />
    </symbol>
    <!-- Taller de Natacion -->
    <symbol id="swim" xmlns="http://www.w3.org/2000/svg" fill="none" viewBox="0 0 200 200">
        <g fill="currentColor">
            <path
                d="M95.21 70.5c-.9 1.4 21.57 20.97 22.75 24.3l10.66 30.83c-21.66-5.34-42.04-15.57-64.61-17.27 2.11-1.75 19.97-9.17 20.04-10.29.11-1.83-18.35-23.72-20.16-30.51-1.58-5.92 1.05-10.85 6.68-13.06 10.41-4.08 30.98-9.11 42.34-11.69 4.16-.95 6.18-2.05 10.53-.27 7.24 2.97 8.71 12.98 2.7 17.95-4.6 3.8-30.05 8.64-30.93 10.02v-.01Z" />
            <path
                d="M49.98 115.77c44.36-3.94 86.81 34.62 128.05 12.19 1.78-.97 9.39-7.97 9.58-.95.2 7.4-18.72 16.8-24.88 18.51-43.33 12.04-79.32-26.2-131.14-12.49-3.08.81-15.06 5.69-16.84 5.43-4.19-.62-1.83-5.04-.25-6.91 7.07-8.38 24.78-14.82 35.48-15.77v-.01Z" />
            <path
                d="M149.13 86.81c27.32-1.93 29.08 38.38 3.73 40.48-27.51 2.28-30.03-38.62-3.73-40.48ZM24.19 148.48c-3.84-1.02 1.32-3.81 2.77-4.47 15.33-6.93 36.21-6.5 52.33-2.73 1.68.4 11.88 3.72 13.6 4.49 5.48 2.42.43 2.84-.75 2.71H24.19Z" />
        </g>
    </symbol>

    <!-- Menu de Accesibilidad -->
    <symbol id="accessibility-menu" xmlns="http://www.w3.org/2000/svg" fill="none" viewBox="0 0 63 63">
        <path fill="currentColor"
            d="M31.445.791a30.662 30.662 0 1 1-21.672 8.98A30.537 30.537 0 0 1 31.445.791Zm-.195 37.008-4.465 12.337a2.464 2.464 0 0 1-1.287 1.412 2.495 2.495 0 0 1-3.403-3.113l3.113-8.62c.248-.65.443-1.317.584-1.996.126-.69.216-1.386.27-2.086.12-1.262.204-2.629.269-3.94.065-1.313.11-2.585.145-3.638.044-1.312-.31-1.397-1.362-1.646l-.22-.05-8.98-1.691a2.496 2.496 0 0 1-1.611-1.028 2.494 2.494 0 0 1 2.52-3.861l9.648 1.81c.384.035.758.08 1.152.125 1.187.163 2.384.251 3.582.265 1.492-.03 2.98-.141 4.46-.335.45-.05.873-.104 1.297-.144l9.105-1.707a2.495 2.495 0 0 1 1.87.355 2.493 2.493 0 0 1 .65 3.492 2.495 2.495 0 0 1-1.602 1.043l-8.7 1.636c-.29.065-.55.11-.779.145-.908.154-1.357.234-1.302 1.526.04.943.155 2.07.304 3.248a85.38 85.38 0 0 0 .644 4.19c.154.884.3 1.592.499 2.27.2.68.394 1.373.693 2.206l3.048 8.431a2.495 2.495 0 1 1-4.69 1.701l-4.48-12.312-.498-.913-.499.888h.025Zm.195-26.7a4.405 4.405 0 1 1 .007 8.809 4.405 4.405 0 0 1-.007-8.81Zm18.134 2.21a25.653 25.653 0 1 0 7.484 18.134 25.578 25.578 0 0 0-7.484-18.135Z" />
    </symbol>
    <!-- Aumentar Tamaño -->
    <symbol id="increase-text" xmlns="http://www.w3.org/2000/svg" fill="none" viewBox="0 0 29 24">
        <path fill="currentColor"
            d="M15.1 18.618H6.693l-1.598 4.779H0L8.657.125h4.446l8.713 23.272h-5.101l-1.615-4.78ZM25.063 6.19v3.062H22.06V6.191h-3.063V3.187h3.063V.125h3.004v3.062h3.062V6.19h-3.062ZM7.987 14.723h5.82l-2.924-8.718-2.896 8.718Z" />
    </symbol>
    <!-- Disminuir Tamaño -->
    <symbol id="decrease-text" xmlns="http://www.w3.org/2000/svg" fill="none" viewBox="0 0 29 24">
        <path fill="currentColor"
            d="M15.1 18.493H6.693l-1.598 4.779H0L8.657 0h4.446l8.713 23.272h-5.101l-1.615-4.78Zm3.897-12.427V3.062h9.128v3.004h-9.128Zm-11.01 8.532h5.82L10.883 5.88l-2.896 8.718Z" />
    </symbol>
    <!-- Activar/Desactivar Animaciones -->
    <symbol id="toggle-animations" xmlns="http://www.w3.org/2000/svg" fill="none" viewBox="0 0 27 30">
        <path fill="url(#a)"
            d="M17 4.046c10.5 1 12.5 33.026 7 23.5-4.38-7.586-15.068-9.491-19.933-9.5.811-5 4.533-14.8 12.933-14Z" />
        <path fill="currentColor"
            d="M19.502 15.909c-2.986 4.97-9.437 6.58-14.408 3.593-4.97-2.986-6.58-9.437-3.593-14.408 2.986-4.97 9.437-6.58 14.408-3.593 4.97 2.986 6.58 9.437 3.593 14.408Z" />
    </symbol>
    <!-- DarkMode -->
    <symbol id="darkmode" xmlns="http://www.w3.org/2000/svg" fill="none" viewBox="0 0 25 26">
        <path fill="currentColor" d="M24.916 14.075A12.422 12.422 0 1 1 11.404.563a9.661 9.661 0 0 0 13.512 13.512Z" />
    </symbol>

</svg>